<svg width="256" height="256" viewBox="0 0 256 256" fill="none" xmlns="http://www.w3.org/2000/svg">
<path d="M33.1119 113.5L249.532 118.085L251.429 122.656L35.583 146L33.1119 113.5Z" fill="#003648"/>
<path d="M66.3975 127.501C66.3975 154.986 63.2215 179.721 58.1726 197.457C55.6404 206.353 52.7001 213.261 49.6094 217.853C46.4229 222.588 43.7065 223.983 41.7942 223.983C39.8818 223.983 37.1654 222.588 33.9789 217.853C30.8883 213.261 27.9479 206.353 25.4157 197.457C20.3668 179.721 17.1908 154.986 17.1908 127.501C17.1908 100.016 20.3668 75.2814 25.4157 57.545C27.9479 48.6495 30.8883 41.7414 33.9789 37.1492C37.1654 32.4145 39.8818 31.0195 41.7942 31.0195C43.7065 31.0195 46.4229 32.4145 49.6094 37.1492C52.7001 41.7414 55.6404 48.6495 58.1726 57.545C63.2215 75.2814 66.3975 100.016 66.3975 127.501Z" stroke="#003648" stroke-width="8"/>
<rect x="50" y="103" width="206" height="45" rx="22.5" fill="#003648"/>
<mask id="path-4-inside-1_644_2" fill="white">
<path d="M63.1062 105.055C58.5579 107.145 54.8364 110.691 52.5303 115.134C50.2242 119.576 49.4653 124.661 50.3736 129.583C51.2819 134.505 53.8056 138.984 57.5454 142.311C61.2852 145.638 66.0275 147.623 71.0221 147.951L72.5 125.5L63.1062 105.055Z"/>
</mask>
<path d="M63.1062 105.055C58.5579 107.145 54.8364 110.691 52.5303 115.134C50.2242 119.576 49.4653 124.661 50.3736 129.583C51.2819 134.505 53.8056 138.984 57.5454 142.311C61.2852 145.638 66.0275 147.623 71.0221 147.951L72.5 125.5L63.1062 105.055Z" fill="#003648" stroke="#E4E4E4" stroke-width="4" mask="url(#path-4-inside-1_644_2)"/>
<path d="M76.3564 118.734L74.2965 110.553H240.114L241.144 118.734H76.3564Z" fill="white" fill-opacity="0.933333"/>
<path d="M79.6789 125.241C79.6789 136.973 76.7643 144.46 71 148C65.5 143 68 135.5 68 125.241C65.1657 114.621 57.2573 110.069 70.6207 104C76.385 105.18 81.3257 115.801 79.6789 125.241Z" fill="#003648"/>
<path d="M250 124.24C250 135.44 244.217 140.62 237.13 144C227.067 144 240.889 135.44 240.889 124.24C242.961 107.34 222.792 106.127 234.892 105C241.979 106.127 250 113.04 250 124.24Z" fill="#003648"/>
<path d="M46 169C46 162.925 50.9249 158 57 158H67.6062C74.2336 158 79.6062 163.373 79.6062 170V176C79.6062 182.627 74.2336 188 67.6062 188H57C50.9249 188 46 183.075 46 177V169Z" fill="#003648"/>
<path d="M54.4015 162.5C58.3552 167 58.3552 178 54.4015 183" stroke="#E4E4E4" stroke-width="2" stroke-linecap="round"/>
<path d="M0 143C0 136.925 4.92487 132 11 132H21.6062C28.2336 132 33.6062 137.373 33.6062 144V150C33.6062 156.627 28.2336 162 21.6062 162H11C4.92486 162 0 157.075 0 151V143Z" fill="#003648"/>
<path d="M8.40149 136.5C12.3552 141 12.3552 152 8.40149 157" stroke="#E4E4E4" stroke-width="2" stroke-linecap="round"/>
<path d="M1 76C1 69.9249 5.92487 65 12 65H22.6062C29.2336 65 34.6062 70.3726 34.6062 77V83C34.6062 89.6274 29.2336 95 22.6062 95H12C5.92486 95 1 90.0751 1 84V76Z" fill="#003648"/>
<path d="M9.40161 69.5C13.3553 74 13.3553 85 9.40161 90" stroke="#E4E4E4" stroke-width="2" stroke-linecap="round"/>
<path d="M29 28C29 21.9249 33.9249 17 40 17H50.6062C57.2336 17 62.6062 22.3726 62.6062 29V35C62.6062 41.6274 57.2336 47 50.6062 47H40C33.9249 47 29 42.0751 29 36V28Z" fill="#003648"/>
<path d="M37.4015 21.5C41.3552 26 41.3552 37 37.4015 42" stroke="#E4E4E4" stroke-width="2" stroke-linecap="round"/>
<path d="M50 95C50 88.9249 54.9249 84 61 84H71.6062C78.2336 84 83.6062 89.3726 83.6062 96V102C83.6062 108.627 78.2336 114 71.6062 114H61C54.9249 114 50 109.075 50 103V95Z" fill="#003648"/>
<path d="M58.4015 88.5C62.3552 93 62.3552 104 58.4015 109" stroke="#E4E4E4" stroke-width="2" stroke-linecap="round"/>
<path d="M10 207C10 200.925 14.9249 196 21 196H31.6062C38.2336 196 43.6062 201.373 43.6062 208V214C43.6062 220.627 38.2336 226 31.6062 226H21C14.9249 226 10 221.075 10 215V207Z" fill="#003648"/>
<path d="M18.4015 200.5C22.3552 205 22.3552 216 18.4015 221" stroke="#E4E4E4" stroke-width="2" stroke-linecap="round"/>
<path d="M73.1428 25.001L249.916 110.501V123.001L86.4865 59.001L73.1428 25.001Z" fill="#003648"/>
<path d="M87.4749 189.501L244.001 132.501V145L69.6833 225.001L87.4749 189.501Z" fill="#003648"/>
</svg>
